<?xml version="1.0" encoding="utf-8" ?>
<svg xmlns="http://www.w3.org/2000/svg" xmlns:xlink="http://www.w3.org/1999/xlink" width="877" height="126">
	<defs>
		<clipPath id="clip_0">
			<rect x="-180.52002" y="-373.38" width="2037.76" height="2718.3398" clip-rule="evenodd"/>
		</clipPath>
	</defs>
	<g clip-path="url(#clip_0)">
		<path fill="rgb(255,255,255)" stroke="none" transform="matrix(1.99 0 0 1.99 2.56006 0.73999)" d="M87.9053 44.7827L100.024 44.7827C100.605 49.6387 105.503 52.7515 112.559 52.7515C119.075 52.7515 123.682 49.5972 123.682 45.0732C123.682 41.2549 120.693 39.0552 113.347 37.478L105.544 35.8179C94.6289 33.5352 89.2749 27.8491 89.2749 18.7183C89.2749 7.4292 98.3643 0 112.185 0C125.383 0 134.722 7.3877 135.095 18.0542L123.308 18.0542C122.727 13.3228 118.328 10.1685 112.268 10.1685C106.001 10.1685 101.851 13.0737 101.851 17.6392C101.851 21.333 104.714 23.4497 111.729 24.9438L118.95 26.4795C130.986 29.0112 136.174 34.1992 136.174 43.4961C136.174 55.5737 126.919 62.9614 111.895 62.9614C97.6172 62.9614 88.3618 55.9473 87.9053 44.7827ZM145.347 31.46C145.347 50.9668 156.096 62.9614 173.445 62.9614C187.888 62.9614 198.43 54.0381 199.468 41.0889L187.266 41.0889C186.062 47.688 180.667 51.9214 173.486 51.9214C164.023 51.9214 158.171 44.0771 158.171 31.46C158.171 18.8428 164.023 11.04 173.445 11.04C180.583 11.04 186.021 15.564 187.224 22.4536L199.426 22.4536C198.513 9.42139 187.639 0 173.445 0C156.055 0 145.347 11.9946 145.347 31.46ZM237.195 0C254.834 0 265.999 12.0776 265.999 31.46C265.999 50.8838 254.875 62.9614 237.195 62.9614C219.39 62.9614 208.35 50.8838 208.35 31.46C208.35 12.0361 219.556 0 237.195 0ZM0 1.53564L23.5742 1.53564C41.3794 1.53564 51.6724 12.2852 51.6724 31.0449C51.6724 50.5103 41.5039 61.4258 23.5742 61.4258L0 61.4258L0 1.53564ZM63.5425 61.4258L76.0767 61.4258L76.0767 1.53564L63.5425 1.53564L63.5425 61.4258ZM307.129 61.4258L291.98 61.4258L271.726 1.53564L285.879 1.53564L299.492 47.3145L300.239 47.3145L313.604 1.53564L327.092 1.53564L307.129 61.4258ZM376.98 61.4258L376.98 50.7178L349.836 50.7178L349.836 36.1499L375.444 36.1499L375.444 26.2305L349.836 26.2305L349.836 12.2437L376.98 12.2437L376.98 1.53564L337.302 1.53564L337.302 61.4258L376.98 61.4258ZM402.712 61.4258L402.712 39.7192L412.964 39.7192L424.128 61.4258L438.323 61.4258L425.706 37.7686C432.595 35.0293 436.58 28.3887 436.58 20.752C436.58 8.84033 428.486 1.53564 415.33 1.53564L390.178 1.53564L390.178 61.4258L402.712 61.4258ZM221.174 31.46C221.174 18.9258 227.441 10.9985 237.195 10.9985C246.907 10.9985 253.174 18.9258 253.174 31.46C253.174 43.9526 246.948 51.9629 237.195 51.9629C227.317 51.9629 221.174 43.9526 221.174 31.46ZM402.712 11.6626L402.712 30.0903L413.711 30.0903C420.02 30.0903 423.713 26.687 423.713 20.918C423.713 15.2319 419.812 11.6626 413.586 11.6626L402.712 11.6626ZM12.5342 12.2437L12.5342 50.7178L21.582 50.7178C32.6636 50.7178 38.8892 43.9111 38.8892 31.2524C38.8892 19.1333 32.4561 12.2437 21.582 12.2437L12.5342 12.2437Z" fill-rule="evenodd"/>
	</g>

</svg>