<?xml version="1.0" encoding="utf-8" ?>
<svg xmlns="http://www.w3.org/2000/svg" xmlns:xlink="http://www.w3.org/1999/xlink" width="413" height="99">
	<defs>
		<clipPath id="clip_0">
			<rect x="-186" y="-672" width="2048" height="2732" clip-rule="evenodd"/>
		</clipPath>
	</defs>
	<g clip-path="url(#clip_0)">
		<path fill="rgb(255,255,255)" stroke="none" transform="matrix(2 0 0 2 0.246094 0.548828)" d="M199.756 8.19092L199.756 18.7256L203.308 18.7256L203.308 8.19092L206.091 8.19092L206.091 5.39551L203.235 5.39551L203.235 4.28467C203.235 3.13721 203.748 2.58789 205.139 2.58789C205.603 2.58789 205.969 2.62451 206.201 2.64893L206.201 0.134277C205.688 0.0488281 205.09 0 204.37 0C201.123 0 199.756 1.35498 199.756 4.02832L199.756 5.39551L197.583 5.39551L197.583 8.19092L199.756 8.19092ZM17.2852 0.12207L17.2852 18.7256L20.8374 18.7256L20.8374 10.9985C20.8374 9.25293 21.8628 8.06885 23.645 8.06885C25.2563 8.06885 26.123 9.0332 26.123 10.9009L26.123 18.7256L29.6753 18.7256L29.6753 10.0586C29.6753 6.82373 27.9541 5.00488 25.061 5.00488C23.0835 5.00488 21.6187 5.93262 20.9961 7.4707L20.7764 7.4707L20.7764 0.12207L17.2852 0.12207ZM106.531 18.9331C103.137 18.9331 101.05 16.272 101.05 11.9751C101.05 7.69043 103.149 5.0415 106.531 5.0415C108.35 5.0415 109.851 5.92041 110.547 7.40967L110.754 7.40967L110.754 0.12207L114.307 0.12207L114.307 18.7256L110.864 18.7256L110.864 16.6138L110.645 16.6138C109.924 18.0664 108.398 18.9331 106.531 18.9331ZM5.28564 18.7256L8.97217 18.7256L8.97217 4.26025L14.2578 4.26025L14.2578 1.11084L0 1.11084L0 4.26025L5.28564 4.26025L5.28564 18.7256ZM45.1294 14.8926L41.8213 14.8926C41.4429 15.7837 40.4785 16.2842 39.0747 16.2842C37.2192 16.2842 36.0474 15.0391 35.9985 13.0371L35.9985 12.854L45.2393 12.854L45.2393 11.7676C45.2393 7.49512 42.8955 4.96826 38.9282 4.96826C34.9243 4.96826 32.4585 7.67822 32.4585 12.0605C32.4585 16.4307 34.8755 19.0186 38.9771 19.0186C42.2729 19.0186 44.6045 17.4194 45.1294 14.8926ZM76.6968 19.0186C72.5586 19.0186 70.0684 16.394 70.0684 11.9873C70.0684 7.62939 72.5952 4.96826 76.6968 4.96826C80.7983 4.96826 83.3252 7.61719 83.3252 11.9873C83.3252 16.394 80.835 19.0186 76.6968 19.0186ZM92.1875 19.0186C88.0493 19.0186 85.5591 16.394 85.5591 11.9873C85.5591 7.62939 88.0859 4.96826 92.1875 4.96826C96.2891 4.96826 98.8159 7.61719 98.8159 11.9873C98.8159 16.394 96.3257 19.0186 92.1875 19.0186ZM117.993 18.7256L117.993 5.26123L121.436 5.26123L121.436 7.42188L121.655 7.42188C122.278 5.9082 123.645 4.96826 125.635 4.96826C128.625 4.96826 130.237 6.79932 130.237 10.022L130.237 18.7256L126.685 18.7256L126.685 10.8643C126.685 9.00879 125.891 8.03223 124.207 8.03223C122.559 8.03223 121.545 9.19189 121.545 10.9619L121.545 18.7256L117.993 18.7256ZM142.383 14.8926L145.691 14.8926C145.166 17.4194 142.834 19.0186 139.539 19.0186C135.437 19.0186 133.02 16.4307 133.02 12.0605C133.02 7.67822 135.486 4.96826 139.49 4.96826C143.457 4.96826 145.801 7.49512 145.801 11.7676L145.801 12.854L136.56 12.854L136.56 13.0371C136.609 15.0391 137.781 16.2842 139.636 16.2842C141.04 16.2842 142.004 15.7837 142.383 14.8926ZM154.004 4.96826C150.647 4.96826 148.401 6.66504 148.401 9.21631C148.401 11.2915 149.67 12.5366 152.283 13.1104L154.724 13.6597C155.908 13.916 156.421 14.3188 156.421 14.978C156.421 15.8447 155.469 16.4185 154.089 16.4185C152.673 16.4185 151.807 15.8936 151.538 14.978L148.071 14.978C148.315 17.5659 150.464 19.0186 154.016 19.0186C157.544 19.0186 159.949 17.2607 159.949 14.5752C159.949 12.561 158.777 11.4624 156.165 10.8887L153.638 10.3394C152.393 10.0586 151.819 9.65576 151.819 8.99658C151.819 8.14209 152.759 7.56836 154.028 7.56836C155.347 7.56836 156.165 8.10547 156.348 8.97217L159.631 8.97217C159.436 6.39648 157.422 4.96826 154.004 4.96826ZM162.317 9.21631C162.317 6.66504 164.563 4.96826 167.92 4.96826C171.338 4.96826 173.352 6.39648 173.547 8.97217L170.264 8.97217C170.081 8.10547 169.263 7.56836 167.944 7.56836C166.675 7.56836 165.735 8.14209 165.735 8.99658C165.735 9.65576 166.309 10.0586 167.554 10.3394L170.081 10.8887C172.693 11.4624 173.865 12.561 173.865 14.5752C173.865 17.2607 171.46 19.0186 167.932 19.0186C164.38 19.0186 162.231 17.5659 161.987 14.978L165.454 14.978C165.723 15.8936 166.589 16.4185 168.005 16.4185C169.385 16.4185 170.337 15.8447 170.337 14.978C170.337 14.3188 169.824 13.916 168.64 13.6597L166.199 13.1104C163.586 12.5366 162.317 11.2915 162.317 9.21631ZM182.568 11.9873C182.568 16.394 185.059 19.0186 189.197 19.0186C193.335 19.0186 195.825 16.394 195.825 11.9873C195.825 7.61719 193.298 4.96826 189.197 4.96826C185.095 4.96826 182.568 7.62939 182.568 11.9873ZM54.3579 19.8853C54.5776 22.2534 56.9458 23.8281 60.5225 23.8281C64.5874 23.8281 67.1631 21.8384 67.1631 18.6768L67.1631 5.26123L63.7207 5.26123L63.7207 7.42188L63.501 7.42188C62.7808 5.94482 61.2305 5.0415 59.4116 5.0415C55.9937 5.0415 53.894 7.70264 53.894 11.8774C53.894 15.9302 55.9814 18.5303 59.3384 18.5303C61.2305 18.5303 62.6465 17.7734 63.3911 16.3574L63.6108 16.3574L63.6108 18.8477C63.6108 20.3613 62.5 21.2402 60.5957 21.2402C59.0576 21.2402 58.0566 20.7153 57.8735 19.8853L54.3579 19.8853ZM38.9404 7.69043C37.2925 7.69043 36.1328 8.83789 36.0107 10.5835L41.748 10.5835C41.6748 8.80127 40.6006 7.69043 38.9404 7.69043ZM136.572 10.5835C136.694 8.83789 137.854 7.69043 139.502 7.69043C141.162 7.69043 142.236 8.80127 142.31 10.5835L136.572 10.5835ZM79.6753 11.9873C79.6753 14.5996 78.5889 16.1133 76.6968 16.1133C74.7925 16.1133 73.7183 14.6118 73.7183 11.9873C73.7183 9.39941 74.8047 7.87354 76.6968 7.87354C78.5767 7.87354 79.6753 9.39941 79.6753 11.9873ZM95.166 11.9873C95.166 14.5996 94.0796 16.1133 92.1875 16.1133C90.2832 16.1133 89.209 14.6118 89.209 11.9873C89.209 9.39941 90.2954 7.87354 92.1875 7.87354C94.0674 7.87354 95.166 9.39941 95.166 11.9873ZM189.197 16.1133C191.089 16.1133 192.175 14.5996 192.175 11.9873C192.175 9.39941 191.077 7.87354 189.197 7.87354C187.305 7.87354 186.218 9.39941 186.218 11.9873C186.218 14.6118 187.292 16.1133 189.197 16.1133ZM60.5713 15.7227C62.5 15.7227 63.6475 14.2456 63.6475 11.8774C63.6475 9.50928 62.4878 8.02002 60.5713 8.02002C58.6548 8.02002 57.5439 9.50928 57.5439 11.8652C57.5439 14.2456 58.6426 15.7227 60.5713 15.7227ZM104.7 11.9873C104.7 9.52148 105.847 8.02002 107.739 8.02002C109.631 8.02002 110.791 9.5459 110.791 11.9995C110.791 14.4653 109.644 15.9668 107.739 15.9668C105.835 15.9668 104.7 14.4775 104.7 11.9873ZM161.511 30.1221L165.063 30.1221L165.063 48.7256L161.511 48.7256L161.511 30.1221ZM75.415 48.7256L74.0601 47.2974C72.7539 48.4082 70.7397 49.0674 68.5791 49.0674C64.8315 49.0674 62.4146 47.1265 62.4146 44.1235C62.4146 42.1094 63.4277 40.6689 65.6982 39.4238C65.7715 39.3994 66.3818 39.0454 66.4795 38.9966C64.8682 37.3486 64.2944 36.25 64.2944 34.9561C64.2944 32.5757 66.4185 30.8423 69.3115 30.8423C72.1924 30.8423 74.231 32.5024 74.231 34.8828C74.231 36.7017 73.1079 38.1665 70.6421 39.4971L74.0234 43.0005C74.4385 42.2681 74.646 41.2549 74.646 39.79L74.646 38.9233L77.6367 38.9233L77.6367 40.022C77.6367 42.1338 77.0874 44.0015 76.1353 45.2832L79.4067 48.7256L75.415 48.7256ZM88.3057 48.7256L91.9922 48.7256L91.9922 43.4155L93.7378 41.3525L98.8525 48.7256L103.271 48.7256L96.3989 38.8379L102.82 31.1108L98.7183 31.1108L92.2119 38.96L91.9922 38.96L91.9922 31.1108L88.3057 31.1108L88.3057 48.7256ZM33.1055 32.063L36.6577 32.063L36.6577 35.3955L39.4531 35.3955L39.4531 38.1909L36.6577 38.1909L36.6577 44.2456C36.6577 45.4175 37.1948 45.9546 38.4033 45.9546C38.8672 45.9546 39.1113 45.9424 39.4531 45.9058L39.4531 48.6157C39.0137 48.7012 38.3545 48.7744 37.6709 48.7744C34.3994 48.7744 33.1055 47.7124 33.1055 45.0879L33.1055 38.1909L31.0059 38.1909L31.0059 35.3955L33.1055 35.3955L33.1055 32.063ZM68.9941 37.7759C70.6055 36.9702 71.2646 36.189 71.2646 35.1514C71.2646 34.0405 70.4712 33.2837 69.3237 33.2837C68.1763 33.2837 67.3584 34.0527 67.3584 35.1514C67.3584 35.957 67.7856 36.6284 68.9941 37.7759ZM0.65918 48.7256L0.65918 35.2612L4.10156 35.2612L4.10156 37.4219L4.32129 37.4219C4.94385 35.9082 6.31104 34.9683 8.30078 34.9683C11.2915 34.9683 12.9028 36.7993 12.9028 40.022L12.9028 48.7256L9.35059 48.7256L9.35059 40.8643C9.35059 39.0088 8.55713 38.0322 6.87256 38.0322C5.22461 38.0322 4.21143 39.1919 4.21143 40.9619L4.21143 48.7256L0.65918 48.7256ZM47.583 34.9683C44.2261 34.9683 41.98 36.665 41.98 39.2163C41.98 41.2915 43.2495 42.5366 45.8618 43.1104L48.3032 43.6597C49.4873 43.916 50 44.3188 50 44.978C50 45.8447 49.0479 46.4185 47.6685 46.4185C46.2524 46.4185 45.3857 45.8936 45.1172 44.978L41.6504 44.978C41.8945 47.5659 44.043 49.0186 47.5952 49.0186C51.123 49.0186 53.5278 47.2607 53.5278 44.5752C53.5278 42.561 52.356 41.4624 49.7437 40.8887L47.2168 40.3394C45.9717 40.0586 45.3979 39.6558 45.3979 38.9966C45.3979 38.1421 46.3379 37.5684 47.6074 37.5684C48.9258 37.5684 49.7437 38.1055 49.9268 38.9722L53.2104 38.9722C53.0151 36.3965 51.001 34.9683 47.583 34.9683ZM116.663 44.8926L113.354 44.8926C112.976 45.7837 112.012 46.2842 110.608 46.2842C108.752 46.2842 107.581 45.0391 107.532 43.0371L107.532 42.854L116.772 42.854L116.772 41.7676C116.772 37.4951 114.429 34.9683 110.461 34.9683C106.458 34.9683 103.992 37.6782 103.992 42.0605C103.992 46.4307 106.409 49.0186 110.51 49.0186C113.806 49.0186 116.138 47.4194 116.663 44.8926ZM130.676 35.2612L130.676 48.7256L134.229 48.7256L134.229 40.9619C134.229 39.1919 135.242 38.0322 136.89 38.0322C138.574 38.0322 139.368 39.0088 139.368 40.8643L139.368 48.7256L142.92 48.7256L142.92 40.022C142.92 36.7993 141.309 34.9683 138.318 34.9683C136.328 34.9683 134.961 35.9082 134.338 37.4219L134.119 37.4219L134.119 35.2612L130.676 35.2612ZM158.374 44.8926L155.066 44.8926C154.688 45.7837 153.723 46.2842 152.319 46.2842C150.464 46.2842 149.292 45.0391 149.243 43.0371L149.243 42.854L158.484 42.854L158.484 41.7676C158.484 37.4951 156.14 34.9683 152.173 34.9683C148.169 34.9683 145.703 37.6782 145.703 42.0605C145.703 46.4307 148.12 49.0186 152.222 49.0186C155.518 49.0186 157.849 47.4194 158.374 44.8926ZM174.048 34.9683C170.691 34.9683 168.445 36.665 168.445 39.2163C168.445 41.2915 169.714 42.5366 172.327 43.1104L174.768 43.6597C175.952 43.916 176.465 44.3188 176.465 44.978C176.465 45.8447 175.513 46.4185 174.133 46.4185C172.717 46.4185 171.851 45.8936 171.582 44.978L168.115 44.978C168.359 47.5659 170.508 49.0186 174.06 49.0186C177.588 49.0186 179.993 47.2607 179.993 44.5752C179.993 42.561 178.821 41.4624 176.208 40.8887L173.682 40.3394C172.437 40.0586 171.863 39.6558 171.863 38.9966C171.863 38.1421 172.803 37.5684 174.072 37.5684C175.391 37.5684 176.208 38.1055 176.392 38.9722L179.675 38.9722C179.48 36.3965 177.466 34.9683 174.048 34.9683ZM119.678 48.7256L119.678 35.2612L123.12 35.2612L123.12 37.4097L123.34 37.4097C123.694 36.0669 125.085 35.0415 126.794 35.0415C127.283 35.0415 127.881 35.1025 128.186 35.2124L128.186 38.4473C127.905 38.3374 127.075 38.2275 126.501 38.2275C124.561 38.2275 123.23 39.375 123.23 41.2671L123.23 48.7256L119.678 48.7256ZM28.5278 48.7256L28.5278 35.2612L24.9756 35.2612L24.9756 43.0249C24.9756 44.8193 24.0234 45.9302 22.2534 45.9302C20.6177 45.9302 19.7754 44.978 19.7754 43.1226L19.7754 35.2612L16.2231 35.2612L16.2231 44.0381C16.2231 47.1631 18.0298 49.0186 20.9351 49.0186C22.9736 49.0186 24.231 48.1274 24.8657 46.5649L25.0854 46.5649L25.0854 48.7256L28.5278 48.7256ZM110.474 37.6904C108.826 37.6904 107.666 38.8379 107.544 40.5835L113.281 40.5835C113.208 38.8013 112.134 37.6904 110.474 37.6904ZM152.185 37.6904C150.537 37.6904 149.377 38.8379 149.255 40.5835L154.993 40.5835C154.919 38.8013 153.845 37.6904 152.185 37.6904ZM65.7471 43.8184C65.7471 42.7441 66.3574 41.8774 67.6392 41.1816C67.7734 41.1084 68.0176 40.9863 68.1519 40.9375L72.1924 45.1978C71.4966 45.9302 70.2271 46.394 68.9453 46.394C67.041 46.394 65.7471 45.3564 65.7471 43.8184Z" fill-rule="evenodd"/>
	</g>

</svg>